<svg xmlns="http://www.w3.org/2000/svg" xmlns:xlink="http://www.w3.org/1999/xlink" width="2000" zoomAndPan="magnify" viewBox="0 0 1500 1499.999933" height="2000" preserveAspectRatio="xMidYMid meet" version="1.0"><defs><g/><clipPath id="8ef316200b"><path d="M 232 97 L 1430 97 L 1430 1294 L 232 1294 Z M 232 97 " clip-rule="nonzero"/></clipPath><clipPath id="6d1b72c537"><path d="M 150.34375 192.773438 L 1334.0625 14.976562 L 1511.863281 1198.695312 L 328.140625 1376.496094 Z M 150.34375 192.773438 " clip-rule="nonzero"/></clipPath><clipPath id="23afeb9f46"><path d="M 150.34375 192.773438 L 1333.703125 15.027344 L 1511.449219 1198.390625 L 328.085938 1376.136719 Z M 150.34375 192.773438 " clip-rule="nonzero"/></clipPath><clipPath id="79419a0a21"><path d="M 742.023438 103.902344 C 415.246094 152.984375 190.132812 457.679688 239.214844 784.453125 C 288.296875 1111.230469 592.992188 1336.347656 919.769531 1287.261719 C 1246.542969 1238.179688 1471.660156 933.484375 1422.578125 606.710938 C 1373.492188 279.933594 1068.800781 54.816406 742.023438 103.902344 Z M 742.023438 103.902344 " clip-rule="nonzero"/></clipPath><clipPath id="b56af3d11b"><path d="M 0 333 L 799 333 L 799 1058 L 0 1058 Z M 0 333 " clip-rule="nonzero"/></clipPath><clipPath id="abe60efe01"><path d="M 227.535156 333.691406 L 798.789062 726.980469 L 571.253906 1057.480469 L 0 664.195312 Z M 227.535156 333.691406 " clip-rule="nonzero"/></clipPath><clipPath id="9a02a67aeb"><path d="M 0 0.601562 L 798.960938 0.601562 L 798.960938 724.679688 L 0 724.679688 Z M 0 0.601562 " clip-rule="nonzero"/></clipPath><clipPath id="832adf0e38"><path d="M 227.535156 0.691406 L 798.789062 393.980469 L 571.253906 724.480469 L 0 331.195312 Z M 227.535156 0.691406 " clip-rule="nonzero"/></clipPath><clipPath id="13d916750d"><rect x="0" width="799" y="0" height="725"/></clipPath><clipPath id="026d241bb2"><rect x="0" width="1339" y="0" height="1169"/></clipPath></defs><rect x="-150" width="1800" fill="#ffffff" y="-149.999993" height="1799.99992" fill-opacity="1"/><rect x="-150" width="1800" fill="#ffffff" y="-149.999993" height="1799.99992" fill-opacity="1"/><g clip-path="url(#8ef316200b)"><g clip-path="url(#6d1b72c537)"><g clip-path="url(#23afeb9f46)"><g clip-path="url(#79419a0a21)"><path stroke-linecap="butt" transform="matrix(0.74168, -0.111403, 0.111403, 0.74168, 150.341972, 192.773884)" fill="none" stroke-linejoin="miter" d="M 797.758172 0.00148109 C 357.167657 0.0000441205 0.00137762 357.170138 0.000714288 797.755503 C -0.000722679 1238.346017 357.168598 1595.517447 797.759886 1595.513734 C 1238.345251 1595.514397 1595.51668 1238.345077 1595.517344 797.759712 C 1595.51363 357.168424 1238.34946 -0.0022325 797.758172 0.00148109 Z M 797.758172 0.00148109 " stroke="#3d3b3a" stroke-width="40" stroke-opacity="1" stroke-miterlimit="4"/></g></g></g></g><g clip-path="url(#b56af3d11b)"><g clip-path="url(#abe60efe01)"><g transform="matrix(1, 0, 0, 1, 0, 333)"><g clip-path="url(#13d916750d)"><g clip-path="url(#9a02a67aeb)"><g clip-path="url(#832adf0e38)"><path fill="#ffffff" d="M 227.535156 0.691406 L 798.167969 393.550781 L 570.628906 724.050781 L 0 331.195312 Z M 227.535156 0.691406 " fill-opacity="1" fill-rule="nonzero"/></g></g></g></g></g></g><g transform="matrix(1, 0, 0, 1, 36, 0.000000000000112861)"><g clip-path="url(#026d241bb2)"><g fill="#3d3b3a" fill-opacity="1"><g transform="translate(176.36363, 800.626655)"><g><path d="M 219.125 -268.296875 C 222.363281 -269.910156 224.382812 -269.601562 225.1875 -267.375 C 226 -265.15625 224.789062 -263.035156 221.5625 -261.015625 C 194.445312 -246.035156 167.9375 -230.25 142.03125 -213.65625 C 116.132812 -197.070312 90.84375 -179.066406 66.15625 -159.640625 C 60.894531 -143.453125 53.914062 -124.226562 45.21875 -101.96875 C 36.519531 -79.71875 27.007812 -56.65625 16.6875 -32.78125 C 6.375 -8.90625 -4.140625 13.957031 -14.859375 35.8125 C -25.585938 57.664062 -36.007812 76.484375 -46.125 92.265625 C -66.363281 123.421875 -85.082031 144.5625 -102.28125 155.6875 C -119.476562 166.820312 -133.132812 169.554688 -143.25 163.890625 C -153.363281 158.222656 -158.421875 145.78125 -158.421875 126.5625 C -158.421875 107.34375 -151.441406 82.859375 -137.484375 53.109375 C -123.523438 23.367188 -101.066406 -10.007812 -70.109375 -47.03125 C -39.148438 -84.0625 2.222656 -123.015625 54.015625 -163.890625 C 57.253906 -171.984375 60.796875 -181.894531 64.640625 -193.625 C 68.484375 -205.363281 72.023438 -217.203125 75.265625 -229.140625 C 78.503906 -241.078125 80.125 -250.6875 80.125 -257.96875 C 80.53125 -263.632812 80.226562 -266.164062 79.21875 -265.5625 C 78.207031 -264.957031 76.6875 -263.441406 74.65625 -261.015625 C 70.207031 -255.347656 65.046875 -247.050781 59.171875 -236.125 C 53.304688 -225.195312 46.832031 -213.5625 39.75 -201.21875 C 32.675781 -188.875 25.296875 -177.238281 17.609375 -166.3125 C 1.421875 -144.0625 -12.84375 -133.238281 -25.1875 -133.84375 C -37.53125 -134.445312 -44.109375 -142.441406 -44.921875 -157.828125 C -45.328125 -168.347656 -43.203125 -181.191406 -38.546875 -196.359375 C -33.890625 -211.535156 -27.613281 -226.910156 -19.71875 -242.484375 C -11.832031 -258.066406 -2.929688 -271.726562 6.984375 -283.46875 C 16.898438 -295.207031 27.117188 -303.097656 37.640625 -307.140625 C 48.160156 -311.191406 58.273438 -309.171875 67.984375 -301.078125 C 70.816406 -299.046875 71.320312 -296.3125 69.5 -292.875 C 67.675781 -289.4375 65.046875 -286.804688 61.609375 -284.984375 C 58.171875 -283.160156 55.035156 -283.265625 52.203125 -285.296875 C 45.722656 -290.554688 38.84375 -291.160156 31.5625 -287.109375 C 24.28125 -283.066406 17.195312 -276.1875 10.3125 -266.46875 C 3.4375 -256.757812 -2.832031 -245.53125 -8.5 -232.78125 C -14.164062 -220.039062 -18.515625 -207.597656 -21.546875 -195.453125 C -24.578125 -183.316406 -25.894531 -173.203125 -25.5 -165.109375 C -24.6875 -154.984375 -21.546875 -151.132812 -16.078125 -153.5625 C -10.617188 -156 -4.046875 -162.273438 3.640625 -172.390625 C 10.921875 -181.296875 18.304688 -191.816406 25.796875 -203.953125 C 33.285156 -216.085938 40.566406 -227.820312 47.640625 -239.15625 C 54.722656 -250.488281 61.097656 -259.191406 66.765625 -265.265625 C 72.429688 -272.140625 77.789062 -275.578125 82.84375 -275.578125 C 87.90625 -275.578125 90.640625 -270.925781 91.046875 -261.625 C 91.046875 -254.738281 89.929688 -246.132812 87.703125 -235.8125 C 85.484375 -225.5 82.957031 -215.179688 80.125 -204.859375 C 77.289062 -194.546875 74.660156 -185.546875 72.234375 -177.859375 C 102.984375 -200.515625 130.195312 -218.617188 153.875 -232.171875 C 177.550781 -245.734375 199.300781 -257.773438 219.125 -268.296875 Z M -61.921875 86.796875 C -52.609375 72.640625 -42.789062 55.546875 -32.46875 35.515625 C -22.15625 15.484375 -12.039062 -5.457031 -2.125 -27.3125 C 7.789062 -49.164062 16.992188 -70.3125 25.484375 -90.75 C 33.984375 -111.1875 41.066406 -128.6875 46.734375 -143.25 C 5.460938 -108.445312 -28.222656 -75.0625 -54.328125 -43.09375 C -80.429688 -11.125 -100.257812 17.804688 -113.8125 43.703125 C -127.363281 69.597656 -135.554688 91.144531 -138.390625 108.34375 C -141.222656 125.539062 -139.707031 136.972656 -133.84375 142.640625 C -127.976562 148.304688 -118.769531 146.890625 -106.21875 138.390625 C -93.675781 129.898438 -78.910156 112.703125 -61.921875 86.796875 Z M -61.921875 86.796875 "/></g></g></g><g fill="#3d3b3a" fill-opacity="1"><g transform="translate(366.378991, 800.626655)"><g><path d="M 216.703125 -270.109375 C 219.535156 -272.140625 221.757812 -272.34375 223.375 -270.71875 C 225 -269.101562 224.59375 -267.082031 222.15625 -264.65625 C 194.644531 -238.351562 168.140625 -218.117188 142.640625 -203.953125 C 117.148438 -189.785156 88.21875 -181.285156 55.84375 -178.453125 C 45.726562 -163.078125 34.597656 -151.847656 22.453125 -144.765625 C 10.316406 -137.679688 -0.90625 -134.441406 -11.21875 -135.046875 C -21.539062 -135.660156 -29.738281 -140.015625 -35.8125 -148.109375 C -41.882812 -156.203125 -43.910156 -167.9375 -41.890625 -183.3125 C -39.859375 -195.457031 -35.8125 -207.800781 -29.75 -220.34375 C -29.34375 -232.476562 -26 -243.503906 -19.71875 -253.421875 C -13.445312 -263.335938 -5.5625 -271.734375 3.9375 -278.609375 C 13.445312 -285.492188 23.257812 -290.148438 33.375 -292.578125 C 43.5 -295.003906 52.609375 -294.597656 60.703125 -291.359375 C 68.796875 -288.117188 74.660156 -281.539062 78.296875 -271.625 C 81.941406 -261.71875 81.742188 -247.660156 77.703125 -229.453125 C 76.078125 -224.191406 74.351562 -218.828125 72.53125 -213.359375 C 70.71875 -207.898438 68.394531 -202.335938 65.5625 -196.671875 C 95.5 -198.691406 121.695312 -206.070312 144.15625 -218.8125 C 166.625 -231.5625 190.804688 -248.660156 216.703125 -270.109375 Z M 63.125 -227.625 C 67.175781 -247.851562 64.75 -261.710938 55.84375 -269.203125 C 46.9375 -276.691406 36.617188 -277.804688 24.890625 -272.546875 C 28.128906 -270.921875 29.140625 -268.285156 27.921875 -264.640625 C 26.703125 -261.003906 24.070312 -258.175781 20.03125 -256.15625 C 13.957031 -253.320312 8.390625 -248.769531 3.328125 -242.5 C -1.722656 -236.226562 -5.867188 -230.257812 -9.109375 -224.59375 C -8.296875 -216.5 -4.753906 -210.328125 1.515625 -206.078125 C 7.785156 -201.828125 15.472656 -199.09375 24.578125 -197.875 C 33.679688 -196.664062 42.6875 -196.0625 51.59375 -196.0625 C 54.425781 -201.320312 56.753906 -206.582031 58.578125 -211.84375 C 60.398438 -217.101562 61.914062 -222.363281 63.125 -227.625 Z M -20.640625 -195.453125 C -24.273438 -180.078125 -23.160156 -168.546875 -17.296875 -160.859375 C -11.429688 -153.171875 -3.140625 -150.539062 7.578125 -152.96875 C 18.304688 -155.394531 29.132812 -163.691406 40.0625 -177.859375 C 28.320312 -177.453125 16.890625 -178.460938 5.765625 -180.890625 C -5.359375 -183.316406 -14.160156 -188.171875 -20.640625 -195.453125 Z M -20.640625 -195.453125 "/></g></g></g><g fill="#3d3b3a" fill-opacity="1"><g transform="translate(550.931348, 800.626655)"><g><path d="M 282.25 -270.109375 C 285.082031 -272.140625 287.304688 -272.34375 288.921875 -270.71875 C 290.546875 -269.101562 290.144531 -267.082031 287.71875 -264.65625 C 273.144531 -250.488281 257.460938 -236.523438 240.671875 -222.765625 C 223.878906 -209.003906 206.582031 -198.078125 188.78125 -189.984375 C 170.96875 -182.296875 156.394531 -178.351562 145.0625 -178.15625 C 133.738281 -177.957031 124.941406 -180.488281 118.671875 -185.75 C 112.398438 -191.007812 107.847656 -197.484375 105.015625 -205.171875 C 102.179688 -212.859375 100.257812 -220.546875 99.25 -228.234375 C 98.238281 -235.921875 97.328125 -242.191406 96.515625 -247.046875 C 93.273438 -264.046875 86.085938 -270.113281 74.953125 -265.25 C 63.828125 -260.394531 52.195312 -248.460938 40.0625 -229.453125 C 33.582031 -218.929688 27.613281 -208.207031 22.15625 -197.28125 C 16.695312 -186.351562 11.132812 -175.019531 5.46875 -163.28125 C -1.820312 -149.113281 -8.398438 -140.410156 -14.265625 -137.171875 C -20.128906 -133.941406 -24.476562 -134.957031 -27.3125 -140.21875 C -30.144531 -145.476562 -30.957031 -153.570312 -29.75 -164.5 C -28.53125 -177.039062 -25.796875 -191.300781 -21.546875 -207.28125 C -17.296875 -223.269531 -13.148438 -237.535156 -9.109375 -250.078125 C -1.816406 -272.742188 6.273438 -295.40625 15.171875 -318.0625 C 24.078125 -340.726562 33.789062 -363.191406 44.3125 -385.453125 C 63.332031 -425.515625 80.9375 -455.757812 97.125 -476.1875 C 113.3125 -496.625 127.066406 -508.863281 138.390625 -512.90625 C 149.722656 -516.945312 157.3125 -514.113281 161.15625 -504.40625 C 165 -494.695312 163.988281 -479.523438 158.125 -458.890625 C 152.257812 -438.253906 140.019531 -413.570312 121.40625 -384.84375 C 111.28125 -369.0625 100.347656 -353.785156 88.609375 -339.015625 C 76.878906 -324.242188 65.550781 -310.988281 54.625 -299.25 C 43.695312 -287.519531 34.488281 -278.113281 27 -271.03125 C 19.519531 -263.945312 14.769531 -260 12.75 -259.1875 C 9.914062 -250.6875 6.675781 -240.164062 3.03125 -227.625 C -0.601562 -215.082031 -3.9375 -202.640625 -6.96875 -190.296875 C -10.007812 -177.953125 -11.734375 -167.734375 -12.140625 -159.640625 C -6.472656 -168.953125 -0.300781 -180.285156 6.375 -193.640625 C 13.050781 -206.992188 20.234375 -219.941406 27.921875 -232.484375 C 41.679688 -255.140625 54.734375 -270.210938 67.078125 -277.703125 C 79.421875 -285.191406 90.039062 -286.8125 98.9375 -282.5625 C 107.84375 -278.3125 113.710938 -269.710938 116.546875 -256.765625 C 118.160156 -248.671875 119.675781 -240.269531 121.09375 -231.5625 C 122.507812 -222.863281 125.140625 -215.273438 128.984375 -208.796875 C 132.828125 -202.328125 139.203125 -198.382812 148.109375 -196.96875 C 157.015625 -195.550781 169.960938 -198.285156 186.953125 -205.171875 C 203.140625 -211.234375 219.53125 -220.640625 236.125 -233.390625 C 252.71875 -246.140625 268.09375 -258.378906 282.25 -270.109375 Z M 60.09375 -383.625 C 45.125 -350.84375 32.378906 -318.46875 21.859375 -286.5 C 38.441406 -301.882812 54.21875 -318.070312 69.1875 -335.0625 C 84.164062 -352.0625 97.726562 -369.867188 109.875 -388.484375 C 125.65625 -412.765625 136.578125 -433.703125 142.640625 -451.296875 C 148.710938 -468.898438 150.9375 -481.953125 149.3125 -490.453125 C 147.695312 -498.953125 142.941406 -501.378906 135.046875 -497.734375 C 127.160156 -494.097656 116.742188 -483.175781 103.796875 -464.96875 C 90.847656 -446.757812 76.28125 -419.644531 60.09375 -383.625 Z M 60.09375 -383.625 "/></g></g></g><g fill="#3d3b3a" fill-opacity="1"><g transform="translate(802.860739, 800.626655)"><g><path d="M 251.296875 -269.515625 C 253.722656 -271.941406 255.945312 -272.546875 257.96875 -271.328125 C 260 -270.117188 260 -268.097656 257.96875 -265.265625 C 243 -246.648438 225.90625 -227.425781 206.6875 -207.59375 C 187.46875 -187.769531 167.738281 -171.378906 147.5 -158.421875 C 128.070312 -145.472656 109.960938 -137.679688 93.171875 -135.046875 C 76.378906 -132.421875 63.832031 -135.457031 55.53125 -144.15625 C 47.238281 -152.863281 45.925781 -167.738281 51.59375 -188.78125 C 54.832031 -200.507812 58.976562 -212.140625 64.03125 -223.671875 C 69.09375 -235.210938 73.039062 -244.828125 75.875 -252.515625 C 77.894531 -258.179688 78.195312 -261.820312 76.78125 -263.4375 C 75.363281 -265.050781 72.023438 -261.816406 66.765625 -253.734375 C 62.722656 -247.253906 57.363281 -238.144531 50.6875 -226.40625 C 44.007812 -214.675781 37.835938 -203.953125 32.171875 -194.234375 C 16.796875 -168.742188 2.332031 -151.546875 -11.21875 -142.640625 C -24.78125 -133.742188 -35.40625 -131.617188 -43.09375 -136.265625 C -50.78125 -140.921875 -53.816406 -150.535156 -52.203125 -165.109375 C -50.585938 -175.222656 -47.25 -186.753906 -42.1875 -199.703125 C -37.125 -212.648438 -30.847656 -225.5 -23.359375 -238.25 C -15.878906 -251 -7.789062 -261.722656 0.90625 -270.421875 C 9.613281 -279.117188 18.210938 -284.175781 26.703125 -285.59375 C 35.203125 -287.007812 42.894531 -283.066406 49.78125 -273.765625 C 51.800781 -271.328125 51.695312 -268.488281 49.46875 -265.25 C 47.238281 -262.019531 44.300781 -259.695312 40.65625 -258.28125 C 37.019531 -256.863281 34.191406 -257.367188 32.171875 -259.796875 C 27.722656 -265.460938 22.765625 -267.28125 17.296875 -265.25 C 11.835938 -263.226562 6.273438 -258.578125 0.609375 -251.296875 C -5.054688 -244.015625 -10.316406 -235.414062 -15.171875 -225.5 C -20.023438 -215.582031 -23.96875 -205.566406 -27 -195.453125 C -30.039062 -185.335938 -31.96875 -176.640625 -32.78125 -169.359375 C -33.582031 -157.210938 -31.453125 -151.441406 -26.390625 -152.046875 C -21.335938 -152.660156 -14.664062 -157.316406 -6.375 -166.015625 C 1.914062 -174.710938 10.3125 -185.332031 18.8125 -197.875 C 26.101562 -209.207031 32.679688 -219.726562 38.546875 -229.4375 C 44.410156 -239.15625 50.582031 -248.46875 57.0625 -257.375 C 67.582031 -270.320312 76.078125 -276.289062 82.546875 -275.28125 C 89.023438 -274.269531 90.644531 -267.085938 87.40625 -253.734375 C 84.976562 -244.015625 81.738281 -233.894531 77.6875 -223.375 C 73.644531 -212.851562 70.410156 -202.128906 67.984375 -191.203125 C 64.742188 -175.015625 66.359375 -163.988281 72.828125 -158.125 C 79.304688 -152.257812 88.816406 -150.742188 101.359375 -153.578125 C 113.910156 -156.410156 127.269531 -162.273438 141.4375 -171.171875 C 164.09375 -185.335938 184.828125 -201.828125 203.640625 -220.640625 C 222.460938 -239.460938 238.347656 -255.753906 251.296875 -269.515625 Z M 251.296875 -269.515625 "/></g></g></g><g fill="#3d3b3a" fill-opacity="1"><g transform="translate(1026.261072, 800.626655)"><g><path d="M 290.75 -270.109375 C 293.582031 -272.546875 295.910156 -272.851562 297.734375 -271.03125 C 299.554688 -269.207031 299.050781 -267.082031 296.21875 -264.65625 C 280.4375 -249.675781 263.539062 -233.890625 245.53125 -217.296875 C 227.519531 -200.710938 209.207031 -187.363281 190.59375 -177.25 C 174.007812 -168.34375 160.351562 -163.382812 149.625 -162.375 C 138.90625 -161.363281 130.40625 -163.082031 124.125 -167.53125 C 117.851562 -171.976562 113.300781 -178.046875 110.46875 -185.734375 C 107.632812 -193.429688 105.914062 -201.328125 105.3125 -209.421875 C 104.707031 -217.515625 104.40625 -224.59375 104.40625 -230.65625 C 105.21875 -248.0625 102.992188 -259.191406 97.734375 -264.046875 C 92.472656 -268.898438 85.691406 -269 77.390625 -264.34375 C 69.097656 -259.695312 60.296875 -251.503906 50.984375 -239.765625 C 43.296875 -230.054688 35.8125 -219.429688 28.53125 -207.890625 C 21.25 -196.359375 14.46875 -185.332031 8.1875 -174.8125 C 1.914062 -164.289062 -3.644531 -155.59375 -8.5 -148.71875 C -16.59375 -138.195312 -23.570312 -133.335938 -29.4375 -134.140625 C -35.300781 -134.953125 -38.640625 -139.203125 -39.453125 -146.890625 C -40.265625 -156.203125 -38.847656 -168.242188 -35.203125 -183.015625 C -31.566406 -197.785156 -26.507812 -213.265625 -20.03125 -229.453125 C -13.550781 -245.640625 -6.875 -260.003906 0 -272.546875 C 2.019531 -276.585938 4.75 -279.015625 8.1875 -279.828125 C 11.632812 -280.640625 14.46875 -280.132812 16.6875 -278.3125 C 18.914062 -276.488281 19.019531 -273.554688 17 -269.515625 C 13.351562 -262.628906 8.796875 -253.21875 3.328125 -241.28125 C -2.128906 -229.34375 -7.285156 -217 -12.140625 -204.25 C -16.992188 -191.507812 -20.734375 -179.976562 -23.359375 -169.65625 C -25.992188 -159.332031 -26.300781 -152.148438 -24.28125 -148.109375 C -19.832031 -151.753906 -14.46875 -159.140625 -8.1875 -170.265625 C -1.914062 -181.390625 5.265625 -193.929688 13.359375 -207.890625 C 21.453125 -221.859375 30.148438 -234.910156 39.453125 -247.046875 C 51.992188 -263.234375 65.039062 -274.460938 78.59375 -280.734375 C 92.15625 -287.003906 103.585938 -286.898438 112.890625 -280.421875 C 122.203125 -273.953125 126.253906 -259.59375 125.046875 -237.34375 C 124.640625 -230.050781 124.640625 -221.953125 125.046875 -213.046875 C 125.453125 -204.148438 127.472656 -196.363281 131.109375 -189.6875 C 134.753906 -183.007812 141.023438 -179.164062 149.921875 -178.15625 C 158.828125 -177.144531 171.375 -180.890625 187.5625 -189.390625 C 203.34375 -197.484375 219.832031 -208.910156 237.03125 -223.671875 C 254.226562 -238.441406 272.132812 -253.921875 290.75 -270.109375 Z M 290.75 -270.109375 "/></g></g></g></g></g><g fill="#3d3b3a" fill-opacity="1"><g transform="translate(374.03259, 885.801576)"><g><path d="M 158.59375 -99.390625 L 125.65625 0 L 106.0625 0 L 81.5 -73.546875 L 56.515625 0 L 36.78125 0 L 3.828125 -99.390625 L 23 -99.390625 L 47.703125 -23.859375 L 73.40625 -99.390625 L 90.4375 -99.390625 L 115.578125 -23.421875 L 140.984375 -99.390625 Z M 158.59375 -99.390625 "/></g></g></g><g fill="#3d3b3a" fill-opacity="1"><g transform="translate(543.548528, 885.801576)"><g><path d="M 59.78125 1.421875 C 49.644531 1.421875 40.503906 -0.773438 32.359375 -5.171875 C 24.222656 -9.578125 17.835938 -15.6875 13.203125 -23.5 C 8.566406 -31.3125 6.25 -40.039062 6.25 -49.6875 C 6.25 -59.34375 8.566406 -68.078125 13.203125 -75.890625 C 17.835938 -83.703125 24.222656 -89.804688 32.359375 -94.203125 C 40.503906 -98.609375 49.644531 -100.8125 59.78125 -100.8125 C 69.90625 -100.8125 79.035156 -98.609375 87.171875 -94.203125 C 95.316406 -89.804688 101.707031 -83.722656 106.34375 -75.953125 C 110.976562 -68.191406 113.296875 -59.4375 113.296875 -49.6875 C 113.296875 -39.9375 110.976562 -31.179688 106.34375 -23.421875 C 101.707031 -15.660156 95.316406 -9.578125 87.171875 -5.171875 C 79.035156 -0.773438 69.90625 1.421875 59.78125 1.421875 Z M 59.78125 -14.765625 C 66.40625 -14.765625 72.363281 -16.253906 77.65625 -19.234375 C 82.957031 -22.222656 87.125 -26.390625 90.15625 -31.734375 C 93.1875 -37.078125 94.703125 -43.0625 94.703125 -49.6875 C 94.703125 -56.320312 93.1875 -62.3125 90.15625 -67.65625 C 87.125 -73 82.957031 -77.160156 77.65625 -80.140625 C 72.363281 -83.128906 66.40625 -84.625 59.78125 -84.625 C 53.15625 -84.625 47.191406 -83.128906 41.890625 -80.140625 C 36.585938 -77.160156 32.421875 -73 29.390625 -67.65625 C 26.359375 -62.3125 24.84375 -56.320312 24.84375 -49.6875 C 24.84375 -43.0625 26.359375 -37.078125 29.390625 -31.734375 C 32.421875 -26.390625 36.585938 -22.222656 41.890625 -19.234375 C 47.191406 -16.253906 53.15625 -14.765625 59.78125 -14.765625 Z M 59.78125 -14.765625 "/></g></g></g><g fill="#3d3b3a" fill-opacity="1"><g transform="translate(670.188724, 885.801576)"><g><path d="M 78.375 0 L 58.078125 -29.109375 C 57.222656 -29.015625 55.941406 -28.96875 54.234375 -28.96875 L 31.796875 -28.96875 L 31.796875 0 L 13.34375 0 L 13.34375 -99.390625 L 54.234375 -99.390625 C 62.847656 -99.390625 70.347656 -97.96875 76.734375 -95.125 C 83.128906 -92.289062 88.03125 -88.222656 91.4375 -82.921875 C 94.84375 -77.617188 96.546875 -71.320312 96.546875 -64.03125 C 96.546875 -56.550781 94.722656 -50.113281 91.078125 -44.71875 C 87.429688 -39.320312 82.203125 -35.300781 75.390625 -32.65625 L 98.25 0 Z M 77.953125 -64.03125 C 77.953125 -70.375 75.867188 -75.25 71.703125 -78.65625 C 67.535156 -82.0625 61.429688 -83.765625 53.390625 -83.765625 L 31.796875 -83.765625 L 31.796875 -44.15625 L 53.390625 -44.15625 C 61.429688 -44.15625 67.535156 -45.878906 71.703125 -49.328125 C 75.867188 -52.785156 77.953125 -57.6875 77.953125 -64.03125 Z M 77.953125 -64.03125 "/></g></g></g><g fill="#3d3b3a" fill-opacity="1"><g transform="translate(781.069925, 885.801576)"><g><path d="M 13.34375 -99.390625 L 31.796875 -99.390625 L 31.796875 -15.625 L 83.765625 -15.625 L 83.765625 0 L 13.34375 0 Z M 13.34375 -99.390625 "/></g></g></g><g fill="#3d3b3a" fill-opacity="1"><g transform="translate(873.210741, 885.801576)"><g><path d="M 13.34375 -99.390625 L 56.796875 -99.390625 C 67.398438 -99.390625 76.816406 -97.328125 85.046875 -93.203125 C 93.285156 -89.085938 99.675781 -83.269531 104.21875 -75.75 C 108.757812 -68.226562 111.03125 -59.539062 111.03125 -49.6875 C 111.03125 -39.84375 108.757812 -31.160156 104.21875 -23.640625 C 99.675781 -16.117188 93.285156 -10.296875 85.046875 -6.171875 C 76.816406 -2.054688 67.398438 0 56.796875 0 L 13.34375 0 Z M 55.9375 -15.625 C 63.226562 -15.625 69.640625 -17.019531 75.171875 -19.8125 C 80.710938 -22.601562 84.972656 -26.578125 87.953125 -31.734375 C 90.941406 -36.890625 92.4375 -42.875 92.4375 -49.6875 C 92.4375 -56.507812 90.941406 -62.5 87.953125 -67.65625 C 84.972656 -72.8125 80.710938 -76.785156 75.171875 -79.578125 C 69.640625 -82.367188 63.226562 -83.765625 55.9375 -83.765625 L 31.796875 -83.765625 L 31.796875 -15.625 Z M 55.9375 -15.625 "/></g></g></g></svg>
